<svg height="30px" xmlns="http://www.w3.org/2000/svg" viewBox="0 0 52 52"><defs><style>.cls-1{fill:#f56085;}</style></defs><title>check</title><path class="cls-1" d="M506,358a26,26,0,1,0,26,26A26,26,0,0,0,506,358Zm0,50a24,24,0,1,1,24-24A24,24,0,0,1,506,408Z" transform="translate(-480 -358)"/><path class="cls-1" d="M518.25,373.34l-15.37,17.29-9.26-7.41a1,1,0,1,0-1.24,1.56l10,8a1,1,0,0,0,.62.22,1,1,0,0,0,.75-.34l16-18a1,1,0,0,0-.08-1.41A1,1,0,0,0,518.25,373.34Z" transform="translate(-480 -358)"/></svg>