<svg height="30px" xmlns="http://www.w3.org/2000/svg" viewBox="0 0 60 60"><defs><style>.cls-1{fill:#f56085;}</style></defs><title>pin</title><path class="cls-1" d="M506,380a7,7,0,1,0-7-7A7,7,0,0,0,506,380Zm0-12a5,5,0,1,1-5,5A5,5,0,0,1,506,368Z" transform="translate(-476 -354)"/><path class="cls-1" d="M505.82,408.76l15.34-22.16c5.76-7.67,4.93-20.28-1.78-27a19.17,19.17,0,0,0-27.12,0c-6.7,6.7-7.53,19.31-1.8,26.95ZM493.68,361A17.18,17.18,0,0,1,518,361c6,6.05,6.79,17.44,1.57,24.4l-13.72,19.81L492.08,385.4C486.88,378.47,487.63,367.08,493.68,361Z" transform="translate(-476 -354)"/><path class="cls-1" d="M518.12,397a1,1,0,0,0-.24,2c10.52,1.24,16.12,4.58,16.12,6.51,0,2.71-10.65,6.5-28,6.5s-28-3.79-28-6.5c0-1.93,5.6-5.27,16.12-6.51a1,1,0,0,0-.24-2c-10.53,1.24-17.88,4.73-17.88,8.49,0,4.22,10.31,8.5,30,8.5s30-4.28,30-8.5C536,401.74,528.65,398.25,518.12,397Z" transform="translate(-476 -354)"/></svg>